<svg xmlns="http://www.w3.org/2000/svg" width="600" height="300" viewBox="0 0 600 300">
  <rect width="600" height="300" fill="#f8f9fa" rx="10" ry="10"/>
  <rect x="50" y="50" width="500" height="200" fill="white" stroke="#6a4c93" stroke-width="2" rx="5" ry="5"/>
  <text x="70" y="85" font-family="Arial" font-size="18" fill="#333">Thêm nhiệm vụ mới</text>
  <line x1="70" y1="95" x2="530" y2="95" stroke="#eee" stroke-width="2"/>
  
  <text x="70" y="130" font-family="Arial" font-size="14" fill="#555">Tên nhiệm vụ:</text>
  <rect x="70" y="140" width="460" height="30" fill="white" stroke="#ddd" rx="3" ry="3"/>
  
  <text x="70" y="195" font-family="Arial" font-size="14" fill="#555">Độ khó:</text>
  <rect x="70" y="205" width="100" height="25" fill="#e9ecef" stroke="#ddd" rx="3" ry="3"/>
  <text x="85" y="222" font-family="Arial" font-size="12" fill="#555">Dễ (10 XP)</text>
  
  <rect x="180" y="205" width="130" height="25" fill="#e9ecef" stroke="#ddd" rx="3" ry="3"/>
  <text x="195" y="222" font-family="Arial" font-size="12" fill="#555">Trung bình (20 XP)</text>
  
  <rect x="320" y="205" width="100" height="25" fill="#e9ecef" stroke="#ddd" rx="3" ry="3"/>
  <text x="335" y="222" font-family="Arial" font-size="12" fill="#555">Khó (30 XP)</text>
  
  <rect x="430" y="205" width="100" height="30" fill="#6a4c93" rx="3" ry="3"/>
  <text x="445" y="225" font-family="Arial" font-size="14" fill="white">Thêm</text>
</svg>